<svg version="1.1" xmlns="http://www.w3.org/2000/svg" viewBox="0 0 1717.1650903108762 1804.164324646986"
    width="1717.1650903108762" height="1804.164324646986">
    <!-- svg-source:excalidraw -->

    <defs>
        <style class="style-fonts">
            @font-face {
                font-family: "Virgil";
                src: url("https://excalidraw.com/Virgil.woff2");
            }

            @font-face {
                font-family: "Cascadia";
                src: url("https://excalidraw.com/Cascadia.woff2");
            }

            @font-face {
                font-family: "Assistant";
                src: url("https://excalidraw.com/Assistant-Regular.woff2");
            }
        </style>

    </defs>
    <rect x="0" y="0" width="1717.1650903108762" height="1804.164324646986" fill="#fff"></rect>
    <g stroke-linecap="round"
        transform="translate(10 965.7885596280851) rotate(0 848.5825451554381 169.25920309502752)">
        <path
            d="M32 0 C426.11 5.38, 818.01 4.9, 1665.17 0 C1686.52 2.94, 1697.44 12.07, 1697.17 32 C1694.39 90.46, 1695 152.54, 1697.17 306.52 C1693.68 330.94, 1683.08 338.09, 1665.17 338.52 C1137.79 350.65, 612.53 348.28, 32 338.52 C8.71 336.3, -3.3 329.77, 0 306.52 C3.6 208.37, 2.63 107.24, 0 32 C-3.01 10.53, 13.22 3.3, 32 0"
            stroke="none" stroke-width="0" fill="#2f9e44"></path>
        <path
            d="M32 0 C448.3 -3.08, 864.11 -2.74, 1665.17 0 M32 0 C397.25 6.36, 762.68 6.37, 1665.17 0 M1665.17 0 C1688.28 -1, 1696.06 9.82, 1697.17 32 M1665.17 0 C1684.3 0.61, 1696.75 10.91, 1697.17 32 M1697.17 32 C1696.74 125.01, 1697.33 218.58, 1697.17 306.52 M1697.17 32 C1697.14 140.99, 1698.11 252, 1697.17 306.52 M1697.17 306.52 C1697.92 328.7, 1686.77 338.7, 1665.17 338.52 M1697.17 306.52 C1697.93 328.31, 1684.84 338.2, 1665.17 338.52 M1665.17 338.52 C1126.69 333.59, 587.33 333.49, 32 338.52 M1665.17 338.52 C1153.92 332.1, 643.52 332.32, 32 338.52 M32 338.52 C9.6 337.82, -0.43 328.42, 0 306.52 M32 338.52 C9.13 338.63, 0.22 325.84, 0 306.52 M0 306.52 C-0.66 234.68, -0.57 164.42, 0 32 M0 306.52 C0.15 203.12, 1.02 100.24, 0 32 M0 32 C-1.74 10.89, 9.01 0.1, 32 0 M0 32 C-2.02 11.03, 11 0.47, 32 0"
            stroke="transparent" stroke-width="2" fill="none"></path>
    </g>
    <g transform="translate(701.4694333903822 985.2245369150678) rotate(0 53.18994140625 12.5)"><text x="0" y="17.52"
            font-family="Virgil, Segoe UI Emoji" font-size="20px" fill="#ebfbee" text-anchor="start"
            style="white-space: pre;" direction="ltr" dominant-baseline="alphabetic">2. Suggest</text></g>
    <g transform="translate(1061.2833834274747 984.5763500215276) rotate(0 59.579933166503906 12.499999999999972)"><text
            x="0" y="17.52" font-family="Virgil, Segoe UI Emoji" font-size="20px" fill="#ebfbee" text-anchor="start"
            style="white-space: pre;" direction="ltr" dominant-baseline="alphabetic">4. calculate</text></g>
    <g stroke-linecap="round"
        transform="translate(749.308772380365 1048.8763992702523) rotate(0 161.44578313253015 75)">
        <path
            d="M32 0 C92.49 -2.15, 155.39 -2.14, 290.89 0 C309.04 1.27, 322.06 10.61, 322.89 32 C319.62 54.5, 319.1 67.12, 322.89 118 C320.41 142.82, 314.87 146.69, 290.89 150 C224.66 147.01, 159.63 146.75, 32 150 C9.45 148.42, -2.92 139.84, 0 118 C-1.84 94.68, 2.48 79.48, 0 32 C1.52 8.03, 8.92 -0.5, 32 0"
            stroke="none" stroke-width="0" fill="#40c057"></path>
        <path
            d="M32 0 C108.58 1.06, 188.55 1.55, 290.89 0 M32 0 C102.23 1.69, 173.55 1.66, 290.89 0 M290.89 0 C310.83 -1.23, 324.2 11.59, 322.89 32 M290.89 0 C310.92 -2.17, 321.17 10.65, 322.89 32 M322.89 32 C324.01 67.37, 323.19 102.14, 322.89 118 M322.89 32 C322.88 50.81, 323.96 71.28, 322.89 118 M322.89 118 C322.36 140.03, 313 149.4, 290.89 150 M322.89 118 C324.38 138.26, 310.41 151.95, 290.89 150 M290.89 150 C226.69 149.95, 160.76 151.44, 32 150 M290.89 150 C214.77 149.9, 139.75 149.87, 32 150 M32 150 C9.69 151.38, 0.59 141.07, 0 118 M32 150 C8.9 149.73, 1.36 140.25, 0 118 M0 118 C-1.1 85.54, -1.66 52.08, 0 32 M0 118 C-0.23 97.22, 0.48 75.92, 0 32 M0 32 C0.12 11.55, 9.18 -0.41, 32 0 M0 32 C-2.27 11.19, 9.93 -0.97, 32 0"
            stroke="transparent" stroke-width="2" fill="none"></path>
    </g>
    <g transform="translate(760.9947135939498 1111.3763992702523) rotate(0 149.7598419189453 12.5)"><text x="0"
            y="17.52" font-family="Virgil, Segoe UI Emoji" font-size="20px" fill="#ebfbee" text-anchor="start"
            style="white-space: pre;" direction="ltr" dominant-baseline="alphabetic">Calculator "Abstract
            Factory"</text></g>
    <g stroke-linecap="round"
        transform="translate(1135.9147729422864 1048.8763992702523) rotate(0 161.44578313253015 75)">
        <path
            d="M32 0 C95.23 -3.9, 152.01 -3.29, 290.89 0 C314.7 3.52, 326.32 13, 322.89 32 C321.9 64.55, 324.8 95.53, 322.89 118 C320.52 139.77, 313.19 148.59, 290.89 150 C195.7 153.93, 93.77 152.72, 32 150 C8.52 153.35, 1.99 142.2, 0 118 C2.58 95.69, 0.14 73.87, 0 32 C-0.61 9.96, 12.02 3.39, 32 0"
            stroke="none" stroke-width="0" fill="#40c057"></path>
        <path
            d="M32 0 C110.89 0.5, 189.05 -0.91, 290.89 0 M32 0 C107.48 2.64, 184.29 2.61, 290.89 0 M290.89 0 C314.12 0.99, 323 9.23, 322.89 32 M290.89 0 C314.15 -1.89, 322.5 12.62, 322.89 32 M322.89 32 C323.14 52.97, 324.29 71.77, 322.89 118 M322.89 32 C323.25 61.08, 323.54 91.14, 322.89 118 M322.89 118 C322.16 140.99, 312.26 149.05, 290.89 150 M322.89 118 C322.67 141.43, 313.16 150.72, 290.89 150 M290.89 150 C217.19 151.37, 142.72 151.93, 32 150 M290.89 150 C208.36 149.73, 126.85 150.53, 32 150 M32 150 C9.03 151.12, 0.44 139.18, 0 118 M32 150 C9.4 151.01, -2.17 138.43, 0 118 M0 118 C0.99 92.68, 0.53 65.63, 0 32 M0 118 C0.01 92.99, 0.47 68.78, 0 32 M0 32 C1.05 11.6, 11.78 -0.91, 32 0 M0 32 C-0.42 9.82, 10.86 -0.24, 32 0"
            stroke="transparent" stroke-width="2" fill="none"></path>
    </g>
    <g transform="translate(1246.1306137530391 1111.3763992702523) rotate(0 51.229942321777344 12.5)"><text x="0"
            y="17.52" font-family="Virgil, Segoe UI Emoji" font-size="20px" fill="#ebfbee" text-anchor="start"
            style="white-space: pre;" direction="ltr" dominant-baseline="alphabetic">Calculator</text></g>
    <g stroke-linecap="round"
        transform="translate(749.308772380365 668.8710636814081) rotate(0 354.74878341349074 124.5)">
        <path
            d="M32 0 C219.52 -2.74, 405.15 -2.5, 677.5 0 C697.8 0.8, 712.56 14.03, 709.5 32 C707.3 104.13, 710.25 180.38, 709.5 217 C712.51 239.06, 697.45 245.46, 677.5 249 C440.71 246.2, 201.23 246.02, 32 249 C13.35 246.58, 0.51 240.46, 0 217 C2.49 164.88, 2.25 109.38, 0 32 C2.64 13.69, 9.55 -0.42, 32 0"
            stroke="none" stroke-width="0" fill="#6741d9"></path>
        <path
            d="M32 0 C271.92 0.18, 512.14 0.72, 677.5 0 M32 0 C237.52 0.2, 442.91 -0.09, 677.5 0 M677.5 0 C700.07 0.36, 709.18 12.55, 709.5 32 M677.5 0 C699.72 0.84, 709.74 11.89, 709.5 32 M709.5 32 C707.3 103.26, 710.82 173.9, 709.5 217 M709.5 32 C708.49 71, 708.34 107.95, 709.5 217 M709.5 217 C708.26 237.12, 699.17 248.65, 677.5 249 M709.5 217 C711.61 236.63, 699.17 248.66, 677.5 249 M677.5 249 C427.05 249.93, 175.45 249.22, 32 249 M677.5 249 C459.94 247.86, 241.96 247.87, 32 249 M32 249 C11.02 248.24, 1.94 236.88, 0 217 M32 249 C8.96 248.14, -0.65 237, 0 217 M0 217 C0.79 158.99, -0.37 104.15, 0 32 M0 217 C-0.01 169.82, 1.23 121.4, 0 32 M0 32 C0.69 9.05, 10.44 0.13, 32 0 M0 32 C-0.39 11.12, 11.91 -1.34, 32 0"
            stroke="transparent" stroke-width="2" fill="none"></path>
    </g>
    <g transform="translate(1034.1976314774495 729.6210636814081) rotate(0 69.85992431640625 12.5)"><text x="0"
            y="17.52" font-family="Virgil, Segoe UI Emoji" font-size="20px" fill="#f3f0ff" text-anchor="start"
            style="white-space: pre;" direction="ltr" dominant-baseline="alphabetic">GearboxDriver</text></g>
    <g transform="translate(936.7277218094807 832.1210636814081) rotate(0 167.329833984375 12.5)"><text x="0" y="17.52"
            font-family="Virgil, Segoe UI Emoji" font-size="20px" fill="#f3f0ff" text-anchor="start"
            style="white-space: pre;" direction="ltr" dominant-baseline="alphabetic">state(Drive, Park, Neutral,
            Race)</text></g>
    <g stroke-linecap="round">
        <g
            transform="translate(823.6508974665028 918.8710636814081) rotate(0 -2.842170943040401e-14 63.89497677885328)">
            <path d="M-0.89 0.95 C-1.04 22.31, -1.11 107.02, -1.12 128.36 M0.85 0.4 C1.06 21.38, 0.91 105.39, 1 126.53"
                stroke="#1e1e1e" stroke-width="2" fill="none"></path>
        </g>
        <g
            transform="translate(823.6508974665028 918.8710636814081) rotate(0 -2.842170943040401e-14 63.89497677885328)">
            <path
                d="M-7.57 103.05 C-3.51 107.9, -1.72 114.83, 1 126.53 M-7.57 103.05 C-3.67 112.57, -1.61 121.09, 1 126.53"
                stroke="#1e1e1e" stroke-width="2" fill="none"></path>
        </g>
        <g
            transform="translate(823.6508974665028 918.8710636814081) rotate(0 -2.842170943040401e-14 63.89497677885328)">
            <path d="M9.53 103.03 C8.74 107.76, 5.69 114.69, 1 126.53 M9.53 103.03 C6.62 112.4, 1.85 120.93, 1 126.53"
                stroke="#1e1e1e" stroke-width="2" fill="none"></path>
        </g>
    </g>
    <mask></mask>
    <g stroke-linecap="round">
        <g
            transform="translate(1201.7595076333118 918.8710636814081) rotate(0 -5.684341886080802e-14 63.19862161690537)">
            <path
                d="M0.49 -1.01 C0.53 20.32, 0.3 106.36, 0.26 127.5 M-0.72 1.07 C-0.8 22.13, -0.61 104.99, -0.56 125.96"
                stroke="#1e1e1e" stroke-width="2" fill="none"></path>
        </g>
        <g
            transform="translate(1201.7595076333118 918.8710636814081) rotate(0 -5.684341886080802e-14 63.19862161690537)">
            <path
                d="M-9.16 102.48 C-8.38 109.88, -2.28 116.88, -0.56 125.96 M-9.16 102.48 C-6.2 108.35, -3.78 113.95, -0.56 125.96"
                stroke="#1e1e1e" stroke-width="2" fill="none"></path>
        </g>
        <g
            transform="translate(1201.7595076333118 918.8710636814081) rotate(0 -5.684341886080802e-14 63.19862161690537)">
            <path
                d="M7.94 102.44 C3.62 109.92, 4.61 116.93, -0.56 125.96 M7.94 102.44 C6.57 108.35, 4.67 113.95, -0.56 125.96"
                stroke="#1e1e1e" stroke-width="2" fill="none"></path>
        </g>
    </g>
    <mask></mask>
    <g stroke-linecap="round">
        <g transform="translate(910.8607779803785 1486.6779411245848) rotate(0 0 -281.9556181727778)">
            <path
                d="M0.65 0.38 C0.63 -93.55, -0.75 -470.25, -0.84 -564.13 M-0.48 -0.46 C-0.05 -94.16, 1.45 -468.67, 1.43 -562.71"
                stroke="#1e1e1e" stroke-width="2" fill="none"></path>
        </g>
        <g transform="translate(910.8607779803785 1486.6779411245848) rotate(0 0 -281.9556181727778)">
            <path
                d="M9.93 -539.2 C8.64 -546.17, 5.6 -550.21, 1.43 -562.71 M9.93 -539.2 C7.51 -548.08, 3.48 -557.18, 1.43 -562.71"
                stroke="#1e1e1e" stroke-width="2" fill="none"></path>
        </g>
        <g transform="translate(910.8607779803785 1486.6779411245848) rotate(0 0 -281.9556181727778)">
            <path
                d="M-7.17 -539.24 C-4.37 -546.3, -3.32 -550.32, 1.43 -562.71 M-7.17 -539.24 C-3.05 -548.13, -0.54 -557.21, 1.43 -562.71"
                stroke="#1e1e1e" stroke-width="2" fill="none"></path>
        </g>
    </g>
    <mask></mask>
    <g transform="translate(924.9741331339372 1388.5564898551047) rotate(0 91.5198974609375 12.5)"><text x="0" y="17.52"
            font-family="Virgil, Segoe UI Emoji" font-size="20px" fill="#868e96" text-anchor="start"
            style="white-space: pre;" direction="ltr" dominant-baseline="alphabetic">3. getCurrentGear</text></g>
    <g stroke-linecap="round">
        <g transform="translate(1394.6348014920563 920.8908934902532) rotate(0 0 245.18174880956326)">
            <path
                d="M-0.64 -0.53 C-0.58 81.16, -0.21 408.68, -0.26 490.56 M1.22 1.81 C1.16 83.07, -1.38 407.4, -1.34 488.54"
                stroke="#1e1e1e" stroke-width="2" fill="none"></path>
        </g>
        <g transform="translate(1394.6348014920563 920.8908934902532) rotate(0 0 245.18174880956326)">
            <path
                d="M-9.8 465.01 C-8.51 470.43, -5.21 475.07, -1.34 488.54 M-9.8 465.01 C-6.69 472.16, -3.65 480.66, -1.34 488.54"
                stroke="#1e1e1e" stroke-width="2" fill="none"></path>
        </g>
        <g transform="translate(1394.6348014920563 920.8908934902532) rotate(0 0 245.18174880956326)">
            <path
                d="M7.3 465.09 C4.38 470.39, 3.45 475.01, -1.34 488.54 M7.3 465.09 C4.68 472.17, 1.98 480.65, -1.34 488.54"
                stroke="#1e1e1e" stroke-width="2" fill="none"></path>
        </g>
    </g>
    <mask></mask>
    <g transform="translate(1261.4416561453831 1363.573670243164) rotate(0 50.56993865966797 12.5)"><text x="0"
            y="17.52" font-family="Virgil, Segoe UI Emoji" font-size="20px" fill="#868e96" text-anchor="start"
            style="white-space: pre;" direction="ltr" dominant-baseline="alphabetic">5. shiftTo</text></g>
    <g stroke-linecap="round"
        transform="translate(771.920006949537 1490.6755932513838) rotate(0 354.74878341349086 124.49999999999994)">
        <path
            d="M32 0 C221.79 3.38, 412.63 3.62, 677.5 0 C696.77 0.12, 706.95 12.75, 709.5 32 C710.93 99.23, 708.77 164.45, 709.5 217 C706.49 237.9, 701.46 245.94, 677.5 249 C462.12 248.5, 243.46 248.58, 32 249 C10.6 249.65, 1.1 239.45, 0 217 C-0.17 156.84, -1.54 97.86, 0 32 C-2.92 11.72, 14.09 0.59, 32 0"
            stroke="none" stroke-width="0" fill="#868e96"></path>
        <path
            d="M32 0 C171.63 -1.42, 311.52 -2.12, 677.5 0 M32 0 C279.37 2.28, 526.54 2.78, 677.5 0 M677.5 0 C699.66 -1.63, 708.33 11.02, 709.5 32 M677.5 0 C699.32 1.76, 708.7 11.33, 709.5 32 M709.5 32 C707.89 92.1, 707.99 154.93, 709.5 217 M709.5 32 C707.99 99.08, 708.47 166.87, 709.5 217 M709.5 217 C709.27 237.45, 700.08 248.08, 677.5 249 M709.5 217 C710.45 238.91, 700.42 248.32, 677.5 249 M677.5 249 C477.26 246.83, 274.98 247.39, 32 249 M677.5 249 C430.89 251.33, 184.79 251.09, 32 249 M32 249 C11.24 247.21, -0.1 238.37, 0 217 M32 249 C12.48 248.27, -1.58 239.01, 0 217 M0 217 C1.09 147.57, 1.51 79.02, 0 32 M0 217 C-0.91 143.41, -1.67 71.42, 0 32 M0 32 C0.99 10, 9.12 -0.51, 32 0 M0 32 C-0.88 10.66, 10.09 0.64, 32 0"
            stroke="transparent" stroke-width="2" fill="none"></path>
    </g>
    <g transform="translate(1086.0988364445707 1602.6755932513838) rotate(0 40.56995391845703 12.5)"><text x="0"
            y="17.52" font-family="Virgil, Segoe UI Emoji" font-size="20px" fill="#ffffff" text-anchor="start"
            style="white-space: pre;" direction="ltr" dominant-baseline="alphabetic">Gearbox</text></g>
    <g transform="translate(718.1953078180298 96.55944369650916) rotate(0 146.11984252929688 12.5)"><text x="0"
            y="17.52" font-family="Virgil, Segoe UI Emoji" font-size="20px" fill="#40c057" text-anchor="start"
            style="white-space: pre;" direction="ltr" dominant-baseline="alphabetic">kickdown, infinite loop,
            paddles</text></g>
    <g stroke-linecap="round">
        <g transform="translate(878.7817036967183 29.872342972950776) rotate(0 0 80.439583117832)">
            <path
                d="M0.54 -0.17 C0.44 26.63, -0.26 134.41, -0.2 161.21 M-0.63 -1.3 C-0.94 25.08, -1.45 132.08, -1.26 159.26"
                stroke="#1e1e1e" stroke-width="2" fill="none"></path>
        </g>
        <g transform="translate(878.7817036967183 29.872342972950776) rotate(0 0 80.439583117832)">
            <path
                d="M-9.81 135.77 C-7.16 143.2, -3.49 152.77, -1.26 159.26 M-9.81 135.77 C-6.8 141.72, -5.88 148.92, -1.26 159.26"
                stroke="#1e1e1e" stroke-width="2" fill="none"></path>
        </g>
        <g transform="translate(878.7817036967183 29.872342972950776) rotate(0 0 80.439583117832)">
            <path
                d="M7.29 135.76 C4.25 143.27, 2.24 152.85, -1.26 159.26 M7.29 135.76 C5.56 141.68, 1.73 148.88, -1.26 159.26"
                stroke="#1e1e1e" stroke-width="2" fill="none"></path>
        </g>
    </g>
    <mask></mask>
    <g stroke-linecap="round"
        transform="translate(750.2721206811773 200.15692302153258) rotate(0 354.74878341349074 124.5)">
        <path
            d="M32 0 C230.75 -4.87, 429.22 -4.23, 677.5 0 C697.15 2.32, 706.16 8.22, 709.5 32 C708.53 107.07, 709.23 175.54, 709.5 217 C709.42 236.01, 701.34 247.1, 677.5 249 C482.54 251.93, 284.76 250.38, 32 249 C12.13 246.27, -1.15 236.91, 0 217 C1.84 148.23, -2.6 88.15, 0 32 C1.65 12.39, 7.89 -0.1, 32 0"
            stroke="none" stroke-width="0" fill="#40c057"></path>
        <path
            d="M32 0 C212.13 -2.62, 394.11 -3.02, 677.5 0 M32 0 C240.85 -1.81, 449.83 -1.51, 677.5 0 M677.5 0 C698.3 1.69, 710.76 10.07, 709.5 32 M677.5 0 C699.68 2.24, 709.62 10.1, 709.5 32 M709.5 32 C707.5 98.87, 706.53 161.44, 709.5 217 M709.5 32 C709.21 85.14, 708.08 138.25, 709.5 217 M709.5 217 C707.99 237.53, 697.27 250.44, 677.5 249 M709.5 217 C709.63 239.81, 697.53 246.99, 677.5 249 M677.5 249 C467.64 246.21, 256.58 246.62, 32 249 M677.5 249 C512.45 248.98, 347.9 249.05, 32 249 M32 249 C10.26 249.58, 0.61 237.06, 0 217 M32 249 C11.9 250.18, -1.69 237.58, 0 217 M0 217 C1.09 162, 2.04 107.95, 0 32 M0 217 C-0.44 157.66, -0.37 97.77, 0 32 M0 32 C-1.95 10.66, 11.57 -1.97, 32 0 M0 32 C1.93 12.43, 11.88 2.01, 32 0"
            stroke="transparent" stroke-width="2" fill="none"></path>
    </g>
    <g transform="translate(1005.6110148734767 299.6569230215326) rotate(0 99.4098892211914 25)"><text
            x="99.4098892211914" y="17.52" font-family="Virgil, Segoe UI Emoji" font-size="20px" fill="#ebfbee"
            text-anchor="middle" style="white-space: pre;" direction="ltr"
            dominant-baseline="alphabetic">UserInterface</text><text x="99.4098892211914" y="42.519999999999996"
            font-family="Virgil, Segoe UI Emoji" font-size="20px" fill="#ebfbee" text-anchor="middle"
            style="white-space: pre;" direction="ltr" dominant-baseline="alphabetic">(pedals, buttons, ...)</text></g>
    <g stroke-linecap="round">
        <g transform="translate(890.3418833064666 450.15692302153263) rotate(0 0 106.57326027800129)">
            <path
                d="M-0.58 0.62 C-0.63 36.05, -1.41 177.44, -1.19 212.87 M1.31 -0.09 C1.69 35.49, 1.05 178.49, 0.9 214.26"
                stroke="#1e1e1e" stroke-width="2" fill="none"></path>
        </g>
        <g transform="translate(890.3418833064666 450.15692302153263) rotate(0 0 106.57326027800129)">
            <path
                d="M-7.55 190.73 C-4.55 194.08, -4.16 202.64, 0.9 214.26 M-7.55 190.73 C-5.63 197.1, -1.94 204.4, 0.9 214.26"
                stroke="#1e1e1e" stroke-width="2" fill="none"></path>
        </g>
        <g transform="translate(890.3418833064666 450.15692302153263) rotate(0 0 106.57326027800129)">
            <path d="M9.55 190.8 C8.7 194.05, 5.25 202.6, 0.9 214.26 M9.55 190.8 C6.33 197.07, 4.87 204.35, 0.9 214.26"
                stroke="#1e1e1e" stroke-width="2" fill="none"></path>
        </g>
    </g>
    <mask></mask>
    <g stroke-linecap="round">
        <g transform="translate(1310.2609423618178 451.85048678465137) rotate(0 0 107.26715556410662)">
            <path
                d="M0.15 0.75 C-0.16 36.4, -0.77 177.96, -0.71 213.67 M-1.22 0.1 C-1.26 35.89, 1.42 179.28, 1.62 214.75"
                stroke="#1e1e1e" stroke-width="2" fill="none"></path>
        </g>
        <g transform="translate(1310.2609423618178 451.85048678465137) rotate(0 0 107.26715556410662)">
            <path
                d="M-7.23 191.37 C-2.47 199.51, -1.64 210.89, 1.62 214.75 M-7.23 191.37 C-4.83 199.17, -0.12 206.79, 1.62 214.75"
                stroke="#1e1e1e" stroke-width="2" fill="none"></path>
        </g>
        <g transform="translate(1310.2609423618178 451.85048678465137) rotate(0 0 107.26715556410662)">
            <path
                d="M9.87 191.15 C7.8 199.4, 1.8 210.87, 1.62 214.75 M9.87 191.15 C6.48 199.12, 5.4 206.82, 1.62 214.75"
                stroke="#1e1e1e" stroke-width="2" fill="none"></path>
        </g>
    </g>
    <mask></mask>
    <g transform="translate(898.357768907147 515.481348980835) rotate(0 65.65992736816406 12.5)"><text x="0" y="17.52"
            font-family="Virgil, Segoe UI Emoji" font-size="20px" fill="#6741d9" text-anchor="start"
            style="white-space: pre;" direction="ltr" dominant-baseline="alphabetic">1. recalculate</text></g>
    <g transform="translate(1332.2143585790695 518.3478659727114) rotate(0 137.099853515625 25)"><text x="0" y="17.52"
            font-family="Virgil, Segoe UI Emoji" font-size="20px" fill="#6741d9" text-anchor="start"
            style="white-space: pre;" direction="ltr" dominant-baseline="alphabetic">park, drive, reverse,
            neutral</text><text x="0" y="42.519999999999996" font-family="Virgil, Segoe UI Emoji" font-size="20px"
            fill="#6741d9" text-anchor="start" style="white-space: pre;" direction="ltr"
            dominant-baseline="alphabetic">forceGear // by paddle</text></g>
    <g stroke-linecap="round" transform="translate(703.0165603134395 10) rotate(0 458.7798847019975 308.2669617771431)">
        <path
            d="M32 0 C347.1 -1.17, 662.22 -0.96, 885.56 0 M885.56 0 C908.2 0.41, 915.58 10.99, 917.56 32 M917.56 32 C915.03 188.54, 916.11 345.93, 917.56 584.53 M917.56 584.53 C919.34 603.94, 907.85 615.46, 885.56 616.53 M885.56 616.53 C588.06 616.61, 290.97 615.58, 32 616.53 M32 616.53 C9.32 618.11, 1.26 606.18, 0 584.53 M0 584.53 C2.4 374.08, 2.62 164.92, 0 32 M0 32 C1.43 10.92, 11.58 -0.22, 32 0"
            stroke="#1e1e1e" stroke-width="2.5" fill="none" stroke-dasharray="8 10"></path>
    </g>
    <g stroke-linecap="round"
        transform="translate(30.99982520039157 1042.7913630852504) rotate(0 220.4890092790872 75)">
        <path
            d="M32 0 C143.79 0.24, 259.86 -2.36, 408.98 0 C428.69 -3.18, 443.04 13.22, 440.98 32 C440.93 60.87, 442.91 88.92, 440.98 118 C440.24 137.7, 426.78 153.22, 408.98 150 C263.66 146.61, 118.63 149.47, 32 150 C8.51 153.39, -3 139.04, 0 118 C0.39 91.16, -0.35 55.13, 0 32 C0.88 11.3, 13.58 2.32, 32 0"
            stroke="none" stroke-width="0" fill="#40c057"></path>
        <path
            d="M32 0 C125.3 0.44, 220.54 0.82, 408.98 0 M32 0 C137.32 -0.1, 243.38 0.73, 408.98 0 M408.98 0 C430.63 0.5, 440.57 12.22, 440.98 32 M408.98 0 C430.1 -1.2, 442.45 12.73, 440.98 32 M440.98 32 C438.8 64.59, 440.08 94.68, 440.98 118 M440.98 32 C441.16 55.51, 440.43 79.07, 440.98 118 M440.98 118 C442.15 139.48, 428.79 148.76, 408.98 150 M440.98 118 C440.44 140.91, 431.41 147.96, 408.98 150 M408.98 150 C269.77 149.59, 129.19 151.28, 32 150 M408.98 150 C293.13 149.14, 178.44 149.28, 32 150 M32 150 C11.78 148.52, -0.84 140.78, 0 118 M32 150 C8.99 152.01, -0.88 139.11, 0 118 M0 118 C-1.51 91.5, -0.12 63.95, 0 32 M0 118 C-0.12 82.99, -1.36 50.24, 0 32 M0 32 C-1.92 12.16, 9.86 1.4, 32 0 M0 32 C-1.14 11.55, 10.48 -0.99, 32 0"
            stroke="transparent" stroke-width="2" fill="none"></path>
    </g>
    <g transform="translate(96.24899683299441 1092.7913630852504) rotate(0 155.23983764648438 25)"><text x="0" y="17.52"
            font-family="Virgil, Segoe UI Emoji" font-size="20px" fill="#ebfbee" text-anchor="start"
            style="white-space: pre;" direction="ltr" dominant-baseline="alphabetic">Car specific equipment</text><text
            x="0" y="42.519999999999996" font-family="Virgil, Segoe UI Emoji" font-size="20px" fill="#ebfbee"
            text-anchor="start" style="white-space: pre;" direction="ltr" dominant-baseline="alphabetic">(MDM, trailer,
            aggressive mode)</text></g>
    <g stroke-linecap="round">
        <g transform="translate(472.97644551496103 1119.1593925267066) rotate(0 136.12699384163102 0)">
            <path
                d="M-0.48 -0.33 C45 -0.07, 226.63 0.61, 272.25 0.7 M1.47 -1.55 C46.84 -1.56, 226.05 -1.59, 271.29 -1.05"
                stroke="#1e1e1e" stroke-width="2" fill="none"></path>
        </g>
        <g transform="translate(472.97644551496103 1119.1593925267066) rotate(0 136.12699384163102 0)">
            <path
                d="M247.76 7.38 C253.13 5.36, 260.72 4.84, 271.29 -1.05 M247.76 7.38 C256.02 5.82, 263.05 1.56, 271.29 -1.05"
                stroke="#1e1e1e" stroke-width="2" fill="none"></path>
        </g>
        <g transform="translate(472.97644551496103 1119.1593925267066) rotate(0 136.12699384163102 0)">
            <path
                d="M247.84 -9.72 C253.07 -7.48, 260.64 -3.73, 271.29 -1.05 M247.84 -9.72 C255.96 -5.84, 262.97 -4.66, 271.29 -1.05"
                stroke="#1e1e1e" stroke-width="2" fill="none"></path>
        </g>
    </g>
    <mask></mask>
    <g transform="translate(542.5141697751884 1068.873865270216) rotate(0 57.089935302734375 12.5)"><text x="0"
            y="17.52" font-family="Virgil, Segoe UI Emoji" font-size="20px" fill="#ebfbee" text-anchor="start"
            style="white-space: pre;" direction="ltr" dominant-baseline="alphabetic">event/query</text></g>
    <g transform="translate(1478.7648016473036 989.4388453483983) rotate(0 103.22244262695312 17.5)"><text x="0"
            y="24.528" font-family="Virgil, Segoe UI Emoji" font-size="28px" fill="#ebfbee" text-anchor="start"
            style="white-space: pre;" direction="ltr" dominant-baseline="alphabetic">CAR SPECIFIC</text></g>
    <g stroke-linecap="round"
        transform="translate(1216.4670998688334 1420.0275685948354) rotate(0 132.47523695384257 29.869894770215524)">
        <path
            d="M14.93 0 C101.12 -2.09, 185.8 -2.8, 250.02 0 C257.34 -0.94, 267.4 6.44, 264.95 14.93 C268.29 22.99, 263.68 35.57, 264.95 44.8 C264.15 54.34, 263.02 57.01, 250.02 59.74 C181.97 62.81, 115.32 63.98, 14.93 59.74 C3.05 59.67, 2.87 53.28, 0 44.8 C-1.81 36.12, 2.43 29.19, 0 14.93 C2.18 5.51, 3.78 1.77, 14.93 0"
            stroke="none" stroke-width="0" fill="#7950f2"></path>
        <path
            d="M14.93 0 C71.21 -1.38, 127.64 0.08, 250.02 0 M14.93 0 C106.11 1.43, 197.59 0.49, 250.02 0 M250.02 0 C258.15 0.69, 265.17 6.36, 264.95 14.93 M250.02 0 C259.38 -0.87, 264.45 6.18, 264.95 14.93 M264.95 14.93 C264.68 22.63, 266.59 31.12, 264.95 44.8 M264.95 14.93 C263.82 23.29, 265.32 31.45, 264.95 44.8 M264.95 44.8 C263.94 54.74, 258.2 57.83, 250.02 59.74 M264.95 44.8 C264.87 56.57, 257.71 60.17, 250.02 59.74 M250.02 59.74 C196.24 58.56, 144.99 59.13, 14.93 59.74 M250.02 59.74 C173.72 59.64, 96.74 60.14, 14.93 59.74 M14.93 59.74 C6.83 61.11, 1.83 54.59, 0 44.8 M14.93 59.74 C3.01 59.29, -1.72 53.37, 0 44.8 M0 44.8 C-1.83 37.65, -0.29 32.17, 0 14.93 M0 44.8 C-0.62 33.99, 0.89 22.08, 0 14.93 M0 14.93 C-0.35 3.76, 6.47 0.46, 14.93 0 M0 14.93 C-0.43 2.79, 6.89 -1.2, 14.93 0"
            stroke="transparent" stroke-width="2" fill="none"></path>
    </g>
    <g transform="translate(1322.8079155589742 1452.9258223215845) rotate(0 33.489959716796875 12.5)"><text x="0"
            y="17.52" font-family="Virgil, Segoe UI Emoji" font-size="20px" fill="#f3f0ff" text-anchor="start"
            style="white-space: pre;" direction="ltr" dominant-baseline="alphabetic">Shifter</text></g>
    <g transform="translate(769.8555979954145 692.0564351708199) rotate(0 92.35990905761719 12.5)"><text x="0" y="17.52"
            font-family="Virgil, Segoe UI Emoji" font-size="20px" fill="#f3f0ff" text-anchor="start"
            style="white-space: pre;" direction="ltr" dominant-baseline="alphabetic">{Directory: Driver}</text></g>
    <g transform="translate(37.15822144964318 989.9722059475887) rotate(0 114.16987609863281 12.5)"><text x="0"
            y="17.52" font-family="Virgil, Segoe UI Emoji" font-size="20px" fill="#e6fcf5" text-anchor="start"
            style="white-space: pre;" direction="ltr" dominant-baseline="alphabetic">{Directory: carspecific}</text></g>
    <g transform="translate(1229.394468597914 1426.096282689962) rotate(0 113.64025115966797 10)"><text x="0" y="14.016"
            font-family="Virgil, Segoe UI Emoji" font-size="16px" fill="#f3f0ff" text-anchor="start"
            style="white-space: pre;" direction="ltr" dominant-baseline="alphabetic">{Directory: driver -&gt;
            shifter}</text></g>
    <g transform="translate(795.303111267147 1506.0787220655948) rotate(0 80.6081771850586 10)"><text x="0" y="14.016"
            font-family="Virgil, Segoe UI Emoji" font-size="16px" fill="#ffffff" text-anchor="start"
            style="white-space: pre;" direction="ltr" dominant-baseline="alphabetic">{Directory: gearbox}</text></g>
    <g stroke-linecap="round"
        transform="translate(427.85139276016645 1596.7898804161523) rotate(0 154.2740929657938 74.18955927455363)">
        <path
            d="M32 0 C127.25 -0.14, 224.98 -1.12, 276.55 0 C299.98 -1.28, 305.71 9.43, 308.55 32 C308.47 50.98, 311.46 72.48, 308.55 116.38 C307.09 136.05, 301.3 150.29, 276.55 148.38 C208.67 147.56, 145.17 147.08, 32 148.38 C9.36 148.24, -3.25 138.93, 0 116.38 C0.83 87.03, -1.86 59, 0 32 C-0.37 7.81, 11.91 -0.33, 32 0"
            stroke="none" stroke-width="0" fill="#868e96"></path>
        <path
            d="M32 0 C91.1 -1.52, 148.21 -1.67, 276.55 0 M32 0 C124.04 1.82, 215.33 1.26, 276.55 0 M276.55 0 C298.26 1.45, 310.16 9.52, 308.55 32 M276.55 0 C296.98 0.01, 309.17 12.65, 308.55 32 M308.55 32 C306.57 60.29, 309.32 88.15, 308.55 116.38 M308.55 32 C308.06 49.78, 307.46 68.02, 308.55 116.38 M308.55 116.38 C307.77 139.19, 296.61 146.57, 276.55 148.38 M308.55 116.38 C307.61 138.49, 297.21 149.79, 276.55 148.38 M276.55 148.38 C212.18 146.01, 145.99 148.52, 32 148.38 M276.55 148.38 C190.84 147.22, 106.38 147.84, 32 148.38 M32 148.38 C11.28 147.32, 0.52 139.38, 0 116.38 M32 148.38 C10.52 150.58, 0.14 136.94, 0 116.38 M0 116.38 C1.54 95.21, -0.35 71.44, 0 32 M0 116.38 C0.43 88.88, -0.09 63.26, 0 32 M0 32 C-1.54 11.76, 9.78 -0.48, 32 0 M0 32 C0.77 11.73, 11.13 -2.21, 32 0"
            stroke="transparent" stroke-width="2" fill="none"></path>
    </g>
    <g transform="translate(553.3755162435384 1658.479439690706) rotate(0 28.749969482421875 12.5)"><text x="0"
            y="17.52" font-family="Virgil, Segoe UI Emoji" font-size="20px" fill="#ffffff" text-anchor="start"
            style="white-space: pre;" direction="ltr" dominant-baseline="alphabetic">Engine</text></g>
    <g transform="translate(443.4884270464324 1614.5362701017361) rotate(0 72.44015502929688 10)"><text x="0" y="14.016"
            font-family="Virgil, Segoe UI Emoji" font-size="16px" fill="#ffffff" text-anchor="start"
            style="white-space: pre;" direction="ltr" dominant-baseline="alphabetic">{Directory: engine}</text></g>
    <g stroke-linecap="round"
        transform="translate(264.3787201989159 1408.989376582948) rotate(0 154.2740929657938 74.18955927455363)">
        <path
            d="M32 0 C79.56 -0.73, 132.86 0.36, 276.55 0 C296.29 1.19, 306.55 8.59, 308.55 32 C308.47 53.38, 307.19 69.16, 308.55 116.38 C308.47 141.26, 300.25 146.59, 276.55 148.38 C185.38 144.42, 97.29 143.93, 32 148.38 C11.66 149.58, 2.36 135.45, 0 116.38 C-1.13 91.68, 3.7 75.98, 0 32 C1.89 9.36, 12.61 -1.52, 32 0"
            stroke="none" stroke-width="0" fill="#868e96"></path>
        <path
            d="M32 0 C85.45 -0.91, 134.59 -2.35, 276.55 0 M32 0 C105.7 1.29, 179.67 1.73, 276.55 0 M276.55 0 C296.34 0.12, 308.76 10.55, 308.55 32 M276.55 0 C297.97 0.28, 310.18 11.65, 308.55 32 M308.55 32 C306.59 54.53, 310.22 73.27, 308.55 116.38 M308.55 32 C308.28 48.85, 310.03 66.84, 308.55 116.38 M308.55 116.38 C306.69 138.78, 296.63 149.93, 276.55 148.38 M308.55 116.38 C310.64 136.75, 295.69 148.53, 276.55 148.38 M276.55 148.38 C186.26 149.69, 97.8 148.49, 32 148.38 M276.55 148.38 C179.82 149.3, 82 149.23, 32 148.38 M32 148.38 C9.56 147.68, 0.33 139.16, 0 116.38 M32 148.38 C10.42 146.89, 0.66 139.66, 0 116.38 M0 116.38 C0.25 95.62, 1.29 78.92, 0 32 M0 116.38 C-1.28 85.76, -1.52 53.56, 0 32 M0 32 C-1 10.39, 12.55 -1.95, 32 0 M0 32 C0.7 11.65, 8.68 -1.22, 32 0"
            stroke="transparent" stroke-width="2" fill="none"></path>
    </g>
    <g transform="translate(361.28287908267845 1470.6789358575015) rotate(0 57.36993408203125 12.5)"><text x="0"
            y="17.52" font-family="Virgil, Segoe UI Emoji" font-size="20px" fill="#ffffff" text-anchor="start"
            style="white-space: pre;" direction="ltr" dominant-baseline="alphabetic">RpmProvider</text></g>
    <g transform="translate(280.01575448518173 1426.7357662685317) rotate(0 72.44015502929688 10)"><text x="0"
            y="14.016" font-family="Virgil, Segoe UI Emoji" font-size="16px" fill="#ffffff" text-anchor="start"
            style="white-space: pre;" direction="ltr" dominant-baseline="alphabetic">{Directory: engine}</text></g>
    <g stroke-linecap="round">
        <g
            transform="translate(584.7261202888308 802.8531352843261) rotate(0 -1.4210854715202004e-14 393.3773112415911)">
            <path
                d="M-1.02 -0.43 C-1.02 130.91, 0.7 656.61, 0.8 787.78 M0.64 -1.71 C0.49 129.34, 0.61 654.61, 0.27 786.19"
                stroke="#1e1e1e" stroke-width="2" fill="none"></path>
        </g>
        <g
            transform="translate(584.7261202888308 802.8531352843261) rotate(0 -1.4210854715202004e-14 393.3773112415911)">
            <path
                d="M-8.26 762.69 C-5.93 772.66, -0.39 779.2, 0.27 786.19 M-8.26 762.69 C-5.91 768.49, -4.04 775.79, 0.27 786.19"
                stroke="#1e1e1e" stroke-width="2" fill="none"></path>
        </g>
        <g
            transform="translate(584.7261202888308 802.8531352843261) rotate(0 -1.4210854715202004e-14 393.3773112415911)">
            <path
                d="M8.85 762.71 C4.95 772.52, 4.26 779.06, 0.27 786.19 M8.85 762.71 C6.31 768.34, 3.31 775.63, 0.27 786.19"
                stroke="#1e1e1e" stroke-width="2" fill="none"></path>
        </g>
    </g>
    <mask></mask>
    <g stroke-linecap="round">
        <g transform="translate(585.1971276100022 799.936911739212) rotate(0 83.07741552879925 0)">
            <path
                d="M0.52 -0.85 C28.37 -0.82, 138.58 0.36, 166.21 0.36 M-0.66 1.31 C27.11 0.95, 137.57 -1.36, 165.29 -1.58"
                stroke="#1e1e1e" stroke-width="2" fill="none"></path>
        </g>
    </g>
    <mask></mask>
    <g stroke-linecap="round"
        transform="translate(253.24462968336053 1398.4416397732878) rotate(0 247.1212379486545 177.92297274371776)">
        <path
            d="M32 0 C157.38 -2.42, 282.27 -2.33, 462.24 0 M462.24 0 C482.72 1.79, 495.89 10.45, 494.24 32 M494.24 32 C492.62 91.31, 492.03 152.89, 494.24 323.85 M494.24 323.85 C494.75 345.5, 483.03 356.03, 462.24 355.85 M462.24 355.85 C375.79 356.37, 287.61 356.97, 32 355.85 M32 355.85 C9.21 356.98, -0.61 347.09, 0 323.85 M0 323.85 C-0.95 258.18, 0.37 192.88, 0 32 M0 32 C-1.71 11.92, 11.23 -0.11, 32 0"
            stroke="#1e1e1e" stroke-width="2.5" fill="none" stroke-dasharray="8 10"></path>
    </g>
    <g transform="translate(271.86584047100575 1360.0817099563512) rotate(0 100.52821350097656 10)"><text x="0"
            y="14.016" font-family="Virgil, Segoe UI Emoji" font-size="16px" fill="#1e1e1e" text-anchor="start"
            style="white-space: pre;" direction="ltr" dominant-baseline="alphabetic">{Directory: enginespecific}</text>
    </g>
    <g stroke-linecap="round"
        transform="translate(763.5982424273459 1486.3174077769497) rotate(0 360.9176812801979 131.96671678290215)">
        <path
            d="M32 0 C213.36 -1.76, 393.55 -0.97, 689.84 0 M689.84 0 C713.01 0.94, 722.75 9.16, 721.84 32 M721.84 32 C721.38 90.59, 724.89 154.09, 721.84 231.93 M721.84 231.93 C722.39 252.28, 710.85 264.52, 689.84 263.93 M689.84 263.93 C537.58 264.06, 387.3 265.2, 32 263.93 M32 263.93 C12.18 262.88, -0.14 252.32, 0 231.93 M0 231.93 C2.74 166.42, -0.6 100.07, 0 32 M0 32 C1.28 11.42, 8.88 0.42, 32 0"
            stroke="#1e1e1e" stroke-width="2.5" fill="none" stroke-dasharray="8 10"></path>
    </g>
    <g transform="translate(1264.4977751344 1774.164324646986) rotate(0 108.69623565673828 10)"><text x="0" y="14.016"
            font-family="Virgil, Segoe UI Emoji" font-size="16px" fill="#1e1e1e" text-anchor="start"
            style="white-space: pre;" direction="ltr" dominant-baseline="alphabetic">{Directory: gearboxspecific}</text>
    </g>
</svg>